<svg xmlns="http://www.w3.org/2000/svg" viewBox="0 0 512 512" width="100%" height="100%">
  <defs>
    <linearGradient id="mg3" x1="0%" y1="0%" x2="100%" y2="100%">
      <stop offset="0%" stop-color="#FFFFFF"/><stop offset="50%" stop-color="#00D2FF"/><stop offset="100%" stop-color="#8A2387"/>
    </linearGradient>
    <filter id="mf3" x="-30%" y="-30%" width="160%" height="160%"><feGaussianBlur stdDeviation="18" result="b"/><feMerge><feMergeNode in="b"/><feMergeNode in="SourceGraphic"/></feMerge></filter>
  </defs>
  <rect width="512" height="512" rx="140" fill="#050308" stroke="rgba(0, 210, 255, 0.5)" stroke-width="12"/>
  <path filter="url(#mf3)" fill="url(#mg3)" d="M 160 110 H 290 C 355 110 395 138 395 188 C 395 220 370 245 330 256 C 375 268 410 298 410 348 C 410 405 355 422 290 422 H 160 V 110 Z M 230 170 V 225 H 275 C 300 225 315 215 315 198 C 315 180 300 170 275 170 H 230 Z M 230 285 V 360 H 285 C 312 360 330 348 330 322 C 330 298 312 285 285 285 H 230 Z"/>
  <!-- Diamond Light Beam Aperture -->
  <polygon points="330,256 360,226 390,256 360,286" fill="#00D2FF" filter="url(#mf3)"/>
</svg>